<svg width="96" height="20" viewBox="0 0 96 20" fill="none" xmlns="http://www.w3.org/2000/svg">
<path d="M6.20661 1.57184C8.06545 1.57184 9.69616 1.93516 11.0987 2.6618C12.5182 3.38843 13.6082 4.4277 14.3686 5.77958C15.1459 7.11457 15.5346 8.66923 15.5346 10.4436C15.5346 12.2179 15.1459 13.7726 14.3686 15.1076C13.6082 16.4257 12.5182 17.448 11.0987 18.1747C9.69616 18.9013 8.06545 19.2646 6.20661 19.2646H0.0217438V1.57184H6.20661ZM6.07987 16.2482C7.93872 16.2482 9.37509 15.7413 10.389 14.7274C11.4029 13.7135 11.9099 12.2855 11.9099 10.4436C11.9099 8.60164 11.4029 7.16526 10.389 6.13445C9.37509 5.08674 7.93872 4.56288 6.07987 4.56288H3.57044V16.2482H6.07987Z" fill="#242424"/>
<path d="M24.4266 19.4928C23.0747 19.4928 21.858 19.197 20.7765 18.6056C19.695 17.9972 18.8416 17.1439 18.2163 16.0455C17.608 14.947 17.3038 13.6797 17.3038 12.2433C17.3038 10.8069 17.6164 9.53951 18.2417 8.4411C18.8838 7.3427 19.7541 6.49777 20.8525 5.90632C21.9509 5.29797 23.1761 4.9938 24.5279 4.9938C25.8798 4.9938 27.105 5.29797 28.2034 5.90632C29.3018 6.49777 30.1636 7.3427 30.7889 8.4411C31.431 9.53951 31.7521 10.8069 31.7521 12.2433C31.7521 13.6797 31.4226 14.947 30.7635 16.0455C30.1214 17.1439 29.2426 17.9972 28.1273 18.6056C27.0289 19.197 25.7953 19.4928 24.4266 19.4928ZM24.4266 16.4003C25.0687 16.4003 25.6686 16.2482 26.2262 15.9441C26.8008 15.623 27.2571 15.1498 27.595 14.5246C27.933 13.8993 28.102 13.1389 28.102 12.2433C28.102 10.9083 27.7471 9.88593 27.0374 9.17619C26.3445 8.44955 25.4912 8.08623 24.4772 8.08623C23.4633 8.08623 22.61 8.44955 21.9171 9.17619C21.2412 9.88593 20.9032 10.9083 20.9032 12.2433C20.9032 13.5783 21.2327 14.6091 21.8918 15.3357C22.5677 16.0455 23.4126 16.4003 24.4266 16.4003Z" fill="#242424"/>
<path d="M33.4427 12.2433C33.4427 10.79 33.7384 9.52261 34.3298 8.4411C34.9213 7.3427 35.7409 6.49777 36.7886 5.90632C37.8363 5.29797 39.0361 4.9938 40.388 4.9938C42.1285 4.9938 43.5649 5.43316 44.6971 6.31188C45.8462 7.17371 46.6151 8.39041 47.0037 9.96197H43.1762C42.9734 9.35362 42.627 8.88047 42.137 8.54249C41.6638 8.18762 41.0724 8.01019 40.3626 8.01019C39.3487 8.01019 38.546 8.38196 37.9546 9.12549C37.3631 9.85213 37.0674 10.8914 37.0674 12.2433C37.0674 13.5783 37.3631 14.6175 37.9546 15.3611C38.546 16.0877 39.3487 16.451 40.3626 16.451C41.799 16.451 42.7369 15.8089 43.1762 14.5246H47.0037C46.6151 16.0455 45.8462 17.2537 44.6971 18.1493C43.548 19.0449 42.1116 19.4928 40.388 19.4928C39.0361 19.4928 37.8363 19.197 36.7886 18.6056C35.7409 17.9972 34.9213 17.1523 34.3298 16.0708C33.7384 14.9724 33.4427 13.6966 33.4427 12.2433Z" fill="#242424"/>
<path d="M48.691 12.1926C48.691 10.7731 48.9698 9.51416 49.5274 8.41575C50.102 7.31735 50.8793 6.47242 51.8594 5.88097C52.8395 5.28952 53.9295 4.9938 55.1293 4.9938C56.0418 4.9938 56.9121 5.19658 57.7401 5.60215C58.5682 5.99081 59.2272 6.51467 59.7173 7.17371V0.507233H63.3167V19.2646H59.7173V17.1861C59.2779 17.8789 58.6611 18.4366 57.8669 18.8591C57.0726 19.2815 56.1517 19.4928 55.104 19.4928C53.9211 19.4928 52.8395 19.1886 51.8594 18.5802C50.8793 17.9719 50.102 17.1185 49.5274 16.0201C48.9698 14.9048 48.691 13.629 48.691 12.1926ZM59.7426 12.2433C59.7426 11.3814 59.5736 10.6464 59.2357 10.038C58.8977 9.41277 58.4414 8.93961 57.8669 8.61854C57.2923 8.28057 56.6755 8.11158 56.0165 8.11158C55.3574 8.11158 54.7491 8.27212 54.1914 8.59319C53.6338 8.91426 53.1775 9.38742 52.8227 10.0127C52.4847 10.621 52.3157 11.3477 52.3157 12.1926C52.3157 13.0375 52.4847 13.781 52.8227 14.4232C53.1775 15.0484 53.6338 15.53 54.1914 15.868C54.766 16.206 55.3743 16.375 56.0165 16.375C56.6755 16.375 57.2923 16.2144 57.8669 15.8934C58.4414 15.5554 58.8977 15.0822 59.2357 14.4739C59.5736 13.8486 59.7426 13.1051 59.7426 12.2433Z" fill="#242424"/>
<path d="M73.0181 19.4928C71.6663 19.4928 70.4496 19.197 69.368 18.6056C68.2865 17.9972 67.4332 17.1439 66.8079 16.0455C66.1996 14.947 65.8954 13.6797 65.8954 12.2433C65.8954 10.8069 66.208 9.53951 66.8333 8.4411C67.4754 7.3427 68.3457 6.49777 69.4441 5.90632C70.5425 5.29797 71.7676 4.9938 73.1195 4.9938C74.4714 4.9938 75.6966 5.29797 76.795 5.90632C77.8934 6.49777 78.7552 7.3427 79.3804 8.4411C80.0226 9.53951 80.3437 10.8069 80.3437 12.2433C80.3437 13.6797 80.0141 14.947 79.3551 16.0455C78.7129 17.1439 77.8342 17.9972 76.7189 18.6056C75.6205 19.197 74.3869 19.4928 73.0181 19.4928ZM73.0181 16.4003C73.6603 16.4003 74.2602 16.2482 74.8178 15.9441C75.3924 15.623 75.8486 15.1498 76.1866 14.5246C76.5246 13.8993 76.6936 13.1389 76.6936 12.2433C76.6936 10.9083 76.3387 9.88593 75.629 9.17619C74.9361 8.44955 74.0827 8.08623 73.0688 8.08623C72.0549 8.08623 71.2015 8.44955 70.5087 9.17619C69.8328 9.88593 69.4948 10.9083 69.4948 12.2433C69.4948 13.5783 69.8243 14.6091 70.4834 15.3357C71.1593 16.0455 72.0042 16.4003 73.0181 16.4003Z" fill="#242424"/>
<path d="M82.0342 12.2433C82.0342 10.79 82.33 9.52261 82.9214 8.4411C83.5129 7.3427 84.3324 6.49777 85.3801 5.90632C86.4279 5.29797 87.6277 4.9938 88.9795 4.9938C90.7201 4.9938 92.1565 5.43316 93.2887 6.31188C94.4378 7.17371 95.2067 8.39041 95.5953 9.96197H91.7678C91.565 9.35362 91.2186 8.88047 90.7285 8.54249C90.2554 8.18762 89.6639 8.01019 88.9542 8.01019C87.9403 8.01019 87.1376 8.38196 86.5462 9.12549C85.9547 9.85213 85.659 10.8914 85.659 12.2433C85.659 13.5783 85.9547 14.6175 86.5462 15.3611C87.1376 16.0877 87.9403 16.451 88.9542 16.451C90.3906 16.451 91.3284 15.8089 91.7678 14.5246H95.5953C95.2067 16.0455 94.4378 17.2537 93.2887 18.1493C92.1396 19.0449 90.7032 19.4928 88.9795 19.4928C87.6277 19.4928 86.4279 19.197 85.3801 18.6056C84.3324 17.9972 83.5129 17.1523 82.9214 16.0708C82.33 14.9724 82.0342 13.6966 82.0342 12.2433Z" fill="#242424"/>
</svg>
