<svg width="39" height="40" viewBox="0 0 39 40" fill="none" xmlns="http://www.w3.org/2000/svg">
<g clip-path="url(#clip0_11_6)">
<path d="M35.5113 12.7224H26.4338V3.5083C26.4338 2.12019 25.3098 0.989136 23.9177 0.989136H13.9843C12.5979 0.989136 11.4682 2.11448 11.4682 3.5083V8.46096H15.3422V4.86786H22.5541V23.5588H19.3704V27.4376H26.4281V16.6011H34.1477V23.5588H30.2851V27.4376H35.5056C36.8921 27.4376 38.0218 26.3122 38.0218 24.9184V15.2416C38.0218 13.8535 36.8978 12.7224 35.5113 12.7224Z" fill="#247CFF"/>
<path d="M22.5597 35.1321H15.3479V16.6011H18.5887V12.7224H11.4738V23.5531H3.87406V16.6011H7.67396V12.7224H2.51614C1.12399 12.7224 0 13.8534 0 15.2416V24.9184C0 26.3065 1.12399 27.4375 2.51614 27.4375H11.4738V36.4974C11.4738 37.8855 12.5978 39.0166 13.99 39.0166H23.9233C25.3098 39.0166 26.4395 37.8912 26.4395 36.4974V31.2877H22.5654V35.1321H22.5597Z" fill="#247CFF"/>
</g>
<defs>
<clipPath id="clip0_11_6">
<rect width="38.0217" height="38.0217" fill="white" transform="translate(0 0.989136)"/>
</clipPath>
</defs>
</svg>
